<mxfile host="app.diagrams.net" agent="Mozilla/5.0 (Windows NT 10.0; Win64; x64) AppleWebKit/537.36 (KHTML, like Gecko) Chrome/129.0.0.0 Safari/537.36" version="24.7.7">
  <diagram name="第 1 页" id="ETo3M96pmxpQNR2pEy0Q">
    <mxGraphModel dx="3614" dy="1863" grid="0" gridSize="10" guides="1" tooltips="1" connect="1" arrows="1" fold="1" page="1" pageScale="1" pageWidth="100000" pageHeight="1000000" math="0" shadow="0">
      <root>
        <mxCell id="0" />
        <mxCell id="1" parent="0" />
        <mxCell id="edP7fKeh5xxDw6Jfyfg2-1" value="图书" style="rounded=0;whiteSpace=wrap;html=1;fontStyle=1" vertex="1" parent="1">
          <mxGeometry x="810" y="730" width="120" height="60" as="geometry" />
        </mxCell>
        <mxCell id="edP7fKeh5xxDw6Jfyfg2-2" value="供货商" style="rounded=0;whiteSpace=wrap;html=1;fontStyle=1" vertex="1" parent="1">
          <mxGeometry x="410" y="630" width="120" height="60" as="geometry" />
        </mxCell>
        <mxCell id="edP7fKeh5xxDw6Jfyfg2-3" value="用户" style="rounded=0;whiteSpace=wrap;html=1;fontStyle=1" vertex="1" parent="1">
          <mxGeometry x="830" y="1080" width="120" height="60" as="geometry" />
        </mxCell>
        <mxCell id="edP7fKeh5xxDw6Jfyfg2-4" value="交易" style="rounded=0;whiteSpace=wrap;html=1;fontStyle=1" vertex="1" parent="1">
          <mxGeometry x="410" y="920" width="120" height="60" as="geometry" />
        </mxCell>
        <mxCell id="edP7fKeh5xxDw6Jfyfg2-7" value="供货商&lt;i&gt;ID&lt;/i&gt;" style="ellipse;whiteSpace=wrap;html=1;fontStyle=1" vertex="1" parent="1">
          <mxGeometry x="340" y="540" width="80" height="50" as="geometry" />
        </mxCell>
        <mxCell id="edP7fKeh5xxDw6Jfyfg2-9" value="联系方式" style="ellipse;whiteSpace=wrap;html=1;fontStyle=1" vertex="1" parent="1">
          <mxGeometry x="260" y="660" width="80" height="50" as="geometry" />
        </mxCell>
        <mxCell id="edP7fKeh5xxDw6Jfyfg2-10" value="名称" style="ellipse;whiteSpace=wrap;html=1;fontStyle=1" vertex="1" parent="1">
          <mxGeometry x="260" y="600" width="80" height="50" as="geometry" />
        </mxCell>
        <mxCell id="edP7fKeh5xxDw6Jfyfg2-11" value="印次" style="ellipse;whiteSpace=wrap;html=1;fontStyle=1" vertex="1" parent="1">
          <mxGeometry x="1020" y="840" width="80" height="50" as="geometry" />
        </mxCell>
        <mxCell id="edP7fKeh5xxDw6Jfyfg2-12" value="单价" style="ellipse;whiteSpace=wrap;html=1;fontStyle=1" vertex="1" parent="1">
          <mxGeometry x="1000" y="770" width="80" height="50" as="geometry" />
        </mxCell>
        <mxCell id="edP7fKeh5xxDw6Jfyfg2-13" value="出版日期" style="ellipse;whiteSpace=wrap;html=1;fontStyle=1" vertex="1" parent="1">
          <mxGeometry x="1000" y="700" width="80" height="50" as="geometry" />
        </mxCell>
        <mxCell id="edP7fKeh5xxDw6Jfyfg2-14" value="作者" style="ellipse;whiteSpace=wrap;html=1;fontStyle=1" vertex="1" parent="1">
          <mxGeometry x="1010" y="630" width="80" height="50" as="geometry" />
        </mxCell>
        <mxCell id="edP7fKeh5xxDw6Jfyfg2-15" value="书名" style="ellipse;whiteSpace=wrap;html=1;fontStyle=1" vertex="1" parent="1">
          <mxGeometry x="950" y="580" width="80" height="50" as="geometry" />
        </mxCell>
        <mxCell id="edP7fKeh5xxDw6Jfyfg2-16" value="ISBN" style="ellipse;whiteSpace=wrap;html=1;fontStyle=1" vertex="1" parent="1">
          <mxGeometry x="750" y="580" width="80" height="50" as="geometry" />
        </mxCell>
        <mxCell id="edP7fKeh5xxDw6Jfyfg2-18" value="版次" style="ellipse;whiteSpace=wrap;html=1;fontStyle=1" vertex="1" parent="1">
          <mxGeometry x="950" y="890" width="80" height="50" as="geometry" />
        </mxCell>
        <mxCell id="edP7fKeh5xxDw6Jfyfg2-19" value="存量" style="ellipse;whiteSpace=wrap;html=1;fontStyle=1" vertex="1" parent="1">
          <mxGeometry x="750" y="890" width="80" height="50" as="geometry" />
        </mxCell>
        <mxCell id="edP7fKeh5xxDw6Jfyfg2-20" value="折扣" style="ellipse;whiteSpace=wrap;html=1;fontStyle=1" vertex="1" parent="1">
          <mxGeometry x="850" y="580" width="80" height="50" as="geometry" />
        </mxCell>
        <mxCell id="edP7fKeh5xxDw6Jfyfg2-21" value="出版社" style="ellipse;whiteSpace=wrap;html=1;fontStyle=1" vertex="1" parent="1">
          <mxGeometry x="850" y="890" width="80" height="50" as="geometry" />
        </mxCell>
        <mxCell id="edP7fKeh5xxDw6Jfyfg2-22" value="地址" style="ellipse;whiteSpace=wrap;html=1;fontStyle=1" vertex="1" parent="1">
          <mxGeometry x="340" y="720" width="80" height="50" as="geometry" />
        </mxCell>
        <mxCell id="edP7fKeh5xxDw6Jfyfg2-23" value="" style="endArrow=none;html=1;rounded=0;entryX=0.5;entryY=1;entryDx=0;entryDy=0;exitX=0;exitY=0;exitDx=0;exitDy=0;fontStyle=1" edge="1" parent="1" source="edP7fKeh5xxDw6Jfyfg2-1" target="edP7fKeh5xxDw6Jfyfg2-16">
          <mxGeometry width="50" height="50" relative="1" as="geometry">
            <mxPoint x="760" y="840" as="sourcePoint" />
            <mxPoint x="810" y="790" as="targetPoint" />
          </mxGeometry>
        </mxCell>
        <mxCell id="edP7fKeh5xxDw6Jfyfg2-24" value="" style="endArrow=none;html=1;rounded=0;entryX=0.5;entryY=1;entryDx=0;entryDy=0;exitX=0.5;exitY=0;exitDx=0;exitDy=0;fontStyle=1" edge="1" parent="1" source="edP7fKeh5xxDw6Jfyfg2-1" target="edP7fKeh5xxDw6Jfyfg2-15">
          <mxGeometry width="50" height="50" relative="1" as="geometry">
            <mxPoint x="857" y="745" as="sourcePoint" />
            <mxPoint x="820" y="680" as="targetPoint" />
          </mxGeometry>
        </mxCell>
        <mxCell id="edP7fKeh5xxDw6Jfyfg2-25" value="" style="endArrow=none;html=1;rounded=0;entryX=0.5;entryY=0;entryDx=0;entryDy=0;exitX=0;exitY=1;exitDx=0;exitDy=0;fontStyle=1" edge="1" parent="1" source="edP7fKeh5xxDw6Jfyfg2-1" target="edP7fKeh5xxDw6Jfyfg2-19">
          <mxGeometry width="50" height="50" relative="1" as="geometry">
            <mxPoint x="867" y="755" as="sourcePoint" />
            <mxPoint x="830" y="690" as="targetPoint" />
          </mxGeometry>
        </mxCell>
        <mxCell id="edP7fKeh5xxDw6Jfyfg2-26" value="" style="endArrow=none;html=1;rounded=0;entryX=0.75;entryY=0;entryDx=0;entryDy=0;exitX=0;exitY=1;exitDx=0;exitDy=0;fontStyle=1" edge="1" parent="1" source="edP7fKeh5xxDw6Jfyfg2-14" target="edP7fKeh5xxDw6Jfyfg2-1">
          <mxGeometry width="50" height="50" relative="1" as="geometry">
            <mxPoint x="877" y="765" as="sourcePoint" />
            <mxPoint x="840" y="700" as="targetPoint" />
          </mxGeometry>
        </mxCell>
        <mxCell id="edP7fKeh5xxDw6Jfyfg2-27" value="" style="endArrow=none;html=1;rounded=0;entryX=0;entryY=0.5;entryDx=0;entryDy=0;exitX=1;exitY=0.25;exitDx=0;exitDy=0;fontStyle=1" edge="1" parent="1" source="edP7fKeh5xxDw6Jfyfg2-1" target="edP7fKeh5xxDw6Jfyfg2-13">
          <mxGeometry width="50" height="50" relative="1" as="geometry">
            <mxPoint x="887" y="775" as="sourcePoint" />
            <mxPoint x="850" y="710" as="targetPoint" />
          </mxGeometry>
        </mxCell>
        <mxCell id="edP7fKeh5xxDw6Jfyfg2-28" value="" style="endArrow=none;html=1;rounded=0;entryX=0;entryY=0.5;entryDx=0;entryDy=0;exitX=1;exitY=0.75;exitDx=0;exitDy=0;fontStyle=1" edge="1" parent="1" source="edP7fKeh5xxDw6Jfyfg2-1" target="edP7fKeh5xxDw6Jfyfg2-12">
          <mxGeometry width="50" height="50" relative="1" as="geometry">
            <mxPoint x="940" y="755" as="sourcePoint" />
            <mxPoint x="1000" y="735" as="targetPoint" />
          </mxGeometry>
        </mxCell>
        <mxCell id="edP7fKeh5xxDw6Jfyfg2-29" value="" style="endArrow=none;html=1;rounded=0;entryX=0.5;entryY=0;entryDx=0;entryDy=0;exitX=0.5;exitY=1;exitDx=0;exitDy=0;fontStyle=1" edge="1" parent="1" source="edP7fKeh5xxDw6Jfyfg2-1" target="edP7fKeh5xxDw6Jfyfg2-18">
          <mxGeometry width="50" height="50" relative="1" as="geometry">
            <mxPoint x="950" y="765" as="sourcePoint" />
            <mxPoint x="1010" y="745" as="targetPoint" />
          </mxGeometry>
        </mxCell>
        <mxCell id="edP7fKeh5xxDw6Jfyfg2-30" value="" style="endArrow=none;html=1;rounded=0;entryX=0;entryY=0;entryDx=0;entryDy=0;exitX=0.75;exitY=1;exitDx=0;exitDy=0;fontStyle=1" edge="1" parent="1" source="edP7fKeh5xxDw6Jfyfg2-1" target="edP7fKeh5xxDw6Jfyfg2-11">
          <mxGeometry width="50" height="50" relative="1" as="geometry">
            <mxPoint x="960" y="775" as="sourcePoint" />
            <mxPoint x="1020" y="755" as="targetPoint" />
          </mxGeometry>
        </mxCell>
        <mxCell id="edP7fKeh5xxDw6Jfyfg2-32" value="" style="endArrow=none;html=1;rounded=0;entryX=0.5;entryY=1;entryDx=0;entryDy=0;exitX=0;exitY=0;exitDx=0;exitDy=0;fontStyle=1" edge="1" parent="1" source="edP7fKeh5xxDw6Jfyfg2-2" target="edP7fKeh5xxDw6Jfyfg2-7">
          <mxGeometry width="50" height="50" relative="1" as="geometry">
            <mxPoint x="810" y="740" as="sourcePoint" />
            <mxPoint x="860" y="690" as="targetPoint" />
          </mxGeometry>
        </mxCell>
        <mxCell id="edP7fKeh5xxDw6Jfyfg2-33" value="" style="endArrow=none;html=1;rounded=0;entryX=1;entryY=0.5;entryDx=0;entryDy=0;exitX=0;exitY=0.25;exitDx=0;exitDy=0;fontStyle=1" edge="1" parent="1" source="edP7fKeh5xxDw6Jfyfg2-2" target="edP7fKeh5xxDw6Jfyfg2-10">
          <mxGeometry width="50" height="50" relative="1" as="geometry">
            <mxPoint x="420" y="640" as="sourcePoint" />
            <mxPoint x="390" y="600" as="targetPoint" />
          </mxGeometry>
        </mxCell>
        <mxCell id="edP7fKeh5xxDw6Jfyfg2-34" value="" style="endArrow=none;html=1;rounded=0;entryX=0;entryY=1;entryDx=0;entryDy=0;exitX=0.5;exitY=0;exitDx=0;exitDy=0;fontStyle=1" edge="1" parent="1" source="edP7fKeh5xxDw6Jfyfg2-22" target="edP7fKeh5xxDw6Jfyfg2-2">
          <mxGeometry width="50" height="50" relative="1" as="geometry">
            <mxPoint x="430" y="650" as="sourcePoint" />
            <mxPoint x="400" y="610" as="targetPoint" />
          </mxGeometry>
        </mxCell>
        <mxCell id="edP7fKeh5xxDw6Jfyfg2-35" value="" style="endArrow=none;html=1;rounded=0;entryX=1;entryY=0.5;entryDx=0;entryDy=0;exitX=0;exitY=0.75;exitDx=0;exitDy=0;fontStyle=1" edge="1" parent="1" source="edP7fKeh5xxDw6Jfyfg2-2" target="edP7fKeh5xxDw6Jfyfg2-9">
          <mxGeometry width="50" height="50" relative="1" as="geometry">
            <mxPoint x="420" y="655" as="sourcePoint" />
            <mxPoint x="350" y="635" as="targetPoint" />
          </mxGeometry>
        </mxCell>
        <mxCell id="edP7fKeh5xxDw6Jfyfg2-36" value="" style="endArrow=none;html=1;rounded=0;entryX=0.5;entryY=0;entryDx=0;entryDy=0;exitX=0.25;exitY=1;exitDx=0;exitDy=0;fontStyle=1" edge="1" parent="1" source="edP7fKeh5xxDw6Jfyfg2-1" target="edP7fKeh5xxDw6Jfyfg2-21">
          <mxGeometry width="50" height="50" relative="1" as="geometry">
            <mxPoint x="880" y="800" as="sourcePoint" />
            <mxPoint x="1000" y="900" as="targetPoint" />
          </mxGeometry>
        </mxCell>
        <mxCell id="edP7fKeh5xxDw6Jfyfg2-37" value="" style="endArrow=none;html=1;rounded=0;entryX=0.5;entryY=1;entryDx=0;entryDy=0;exitX=0.25;exitY=0;exitDx=0;exitDy=0;fontStyle=1" edge="1" parent="1" source="edP7fKeh5xxDw6Jfyfg2-1" target="edP7fKeh5xxDw6Jfyfg2-20">
          <mxGeometry width="50" height="50" relative="1" as="geometry">
            <mxPoint x="820" y="740" as="sourcePoint" />
            <mxPoint x="800" y="640" as="targetPoint" />
          </mxGeometry>
        </mxCell>
        <mxCell id="edP7fKeh5xxDw6Jfyfg2-40" value="用户ID" style="ellipse;whiteSpace=wrap;html=1;fontStyle=1" vertex="1" parent="1">
          <mxGeometry x="930" y="1010" width="80" height="50" as="geometry" />
        </mxCell>
        <mxCell id="edP7fKeh5xxDw6Jfyfg2-41" value="身份" style="ellipse;whiteSpace=wrap;html=1;fontStyle=1" vertex="1" parent="1">
          <mxGeometry x="1000" y="1060" width="80" height="50" as="geometry" />
        </mxCell>
        <mxCell id="edP7fKeh5xxDw6Jfyfg2-42" value="联系方式" style="ellipse;whiteSpace=wrap;html=1;fontStyle=1" vertex="1" parent="1">
          <mxGeometry x="930" y="1170" width="80" height="50" as="geometry" />
        </mxCell>
        <mxCell id="edP7fKeh5xxDw6Jfyfg2-43" value="姓名" style="ellipse;whiteSpace=wrap;html=1;fontStyle=1" vertex="1" parent="1">
          <mxGeometry x="1000" y="1120" width="80" height="50" as="geometry" />
        </mxCell>
        <mxCell id="edP7fKeh5xxDw6Jfyfg2-44" value="" style="endArrow=none;html=1;rounded=0;entryX=0;entryY=0.25;entryDx=0;entryDy=0;exitX=0.987;exitY=0.496;exitDx=0;exitDy=0;exitPerimeter=0;fontStyle=1" edge="1" parent="1" source="edP7fKeh5xxDw6Jfyfg2-45" target="edP7fKeh5xxDw6Jfyfg2-1">
          <mxGeometry width="50" height="50" relative="1" as="geometry">
            <mxPoint x="740" y="720" as="sourcePoint" />
            <mxPoint x="660" y="750" as="targetPoint" />
          </mxGeometry>
        </mxCell>
        <mxCell id="edP7fKeh5xxDw6Jfyfg2-46" value="" style="endArrow=none;html=1;rounded=0;entryX=0;entryY=0.5;entryDx=0;entryDy=0;exitX=1;exitY=0.5;exitDx=0;exitDy=0;fontStyle=1" edge="1" parent="1" source="edP7fKeh5xxDw6Jfyfg2-2" target="edP7fKeh5xxDw6Jfyfg2-45">
          <mxGeometry width="50" height="50" relative="1" as="geometry">
            <mxPoint x="550" y="640" as="sourcePoint" />
            <mxPoint x="813" y="752" as="targetPoint" />
          </mxGeometry>
        </mxCell>
        <mxCell id="edP7fKeh5xxDw6Jfyfg2-45" value="供给" style="rhombus;whiteSpace=wrap;html=1;rotation=15;fontStyle=1" vertex="1" parent="1">
          <mxGeometry x="610" y="670" width="119.98" height="70" as="geometry" />
        </mxCell>
        <mxCell id="edP7fKeh5xxDw6Jfyfg2-48" value="1" style="text;html=1;align=center;verticalAlign=middle;resizable=0;points=[];autosize=1;strokeColor=none;fillColor=none;rotation=15;fontStyle=1" vertex="1" parent="1">
          <mxGeometry x="555" y="648" width="30" height="30" as="geometry" />
        </mxCell>
        <mxCell id="edP7fKeh5xxDw6Jfyfg2-49" value="N" style="text;html=1;align=center;verticalAlign=middle;resizable=0;points=[];autosize=1;strokeColor=none;fillColor=none;rotation=15;fontStyle=1" vertex="1" parent="1">
          <mxGeometry x="765" y="710" width="30" height="30" as="geometry" />
        </mxCell>
        <mxCell id="edP7fKeh5xxDw6Jfyfg2-50" value="" style="endArrow=none;html=1;rounded=0;entryX=0;entryY=0.75;entryDx=0;entryDy=0;fontStyle=1" edge="1" parent="1" source="edP7fKeh5xxDw6Jfyfg2-52" target="edP7fKeh5xxDw6Jfyfg2-1">
          <mxGeometry width="50" height="50" relative="1" as="geometry">
            <mxPoint x="530" y="920" as="sourcePoint" />
            <mxPoint x="580" y="870" as="targetPoint" />
          </mxGeometry>
        </mxCell>
        <mxCell id="edP7fKeh5xxDw6Jfyfg2-53" value="" style="endArrow=none;html=1;rounded=0;entryX=0;entryY=0.5;entryDx=0;entryDy=0;fontStyle=1" edge="1" parent="1" target="edP7fKeh5xxDw6Jfyfg2-52">
          <mxGeometry width="50" height="50" relative="1" as="geometry">
            <mxPoint x="530" y="920" as="sourcePoint" />
            <mxPoint x="810" y="775" as="targetPoint" />
          </mxGeometry>
        </mxCell>
        <mxCell id="edP7fKeh5xxDw6Jfyfg2-52" value="买卖" style="rhombus;whiteSpace=wrap;html=1;rotation=-25;fontStyle=1" vertex="1" parent="1">
          <mxGeometry x="610" y="810" width="119.98" height="70" as="geometry" />
        </mxCell>
        <mxCell id="edP7fKeh5xxDw6Jfyfg2-54" value="M" style="text;html=1;align=center;verticalAlign=middle;resizable=0;points=[];autosize=1;strokeColor=none;fillColor=none;rotation=-30;fontStyle=1" vertex="1" parent="1">
          <mxGeometry x="545" y="868" width="30" height="30" as="geometry" />
        </mxCell>
        <mxCell id="edP7fKeh5xxDw6Jfyfg2-55" value="N" style="text;html=1;align=center;verticalAlign=middle;resizable=0;points=[];autosize=1;strokeColor=none;fillColor=none;rotation=-30;fontStyle=1" vertex="1" parent="1">
          <mxGeometry x="745" y="768" width="30" height="30" as="geometry" />
        </mxCell>
        <mxCell id="edP7fKeh5xxDw6Jfyfg2-57" value="交易金额" style="ellipse;whiteSpace=wrap;html=1;fontStyle=1" vertex="1" parent="1">
          <mxGeometry x="320" y="990" width="80" height="50" as="geometry" />
        </mxCell>
        <mxCell id="edP7fKeh5xxDw6Jfyfg2-58" value="交易日期" style="ellipse;whiteSpace=wrap;html=1;fontStyle=1" vertex="1" parent="1">
          <mxGeometry x="280" y="925" width="80" height="50" as="geometry" />
        </mxCell>
        <mxCell id="edP7fKeh5xxDw6Jfyfg2-59" value="交易ID" style="ellipse;whiteSpace=wrap;html=1;fontStyle=1" vertex="1" parent="1">
          <mxGeometry x="320" y="858" width="80" height="50" as="geometry" />
        </mxCell>
        <mxCell id="edP7fKeh5xxDw6Jfyfg2-60" value="" style="endArrow=none;html=1;rounded=0;exitX=1;exitY=0.5;exitDx=0;exitDy=0;entryX=0;entryY=0.5;entryDx=0;entryDy=0;fontStyle=1" edge="1" parent="1" source="edP7fKeh5xxDw6Jfyfg2-58" target="edP7fKeh5xxDw6Jfyfg2-4">
          <mxGeometry width="50" height="50" relative="1" as="geometry">
            <mxPoint x="710" y="970" as="sourcePoint" />
            <mxPoint x="760" y="920" as="targetPoint" />
          </mxGeometry>
        </mxCell>
        <mxCell id="edP7fKeh5xxDw6Jfyfg2-61" value="" style="endArrow=none;html=1;rounded=0;exitX=1;exitY=0;exitDx=0;exitDy=0;entryX=0;entryY=1;entryDx=0;entryDy=0;fontStyle=1" edge="1" parent="1" source="edP7fKeh5xxDw6Jfyfg2-57" target="edP7fKeh5xxDw6Jfyfg2-4">
          <mxGeometry width="50" height="50" relative="1" as="geometry">
            <mxPoint x="370" y="960" as="sourcePoint" />
            <mxPoint x="420" y="960" as="targetPoint" />
          </mxGeometry>
        </mxCell>
        <mxCell id="edP7fKeh5xxDw6Jfyfg2-62" value="" style="endArrow=none;html=1;rounded=0;exitX=1;exitY=1;exitDx=0;exitDy=0;entryX=0;entryY=0;entryDx=0;entryDy=0;fontStyle=1" edge="1" parent="1" source="edP7fKeh5xxDw6Jfyfg2-59" target="edP7fKeh5xxDw6Jfyfg2-4">
          <mxGeometry width="50" height="50" relative="1" as="geometry">
            <mxPoint x="380" y="970" as="sourcePoint" />
            <mxPoint x="430" y="970" as="targetPoint" />
          </mxGeometry>
        </mxCell>
        <mxCell id="edP7fKeh5xxDw6Jfyfg2-63" value="" style="endArrow=none;html=1;rounded=0;exitX=1;exitY=0.5;exitDx=0;exitDy=0;entryX=0;entryY=0;entryDx=0;entryDy=0;fontStyle=1" edge="1" parent="1" source="edP7fKeh5xxDw6Jfyfg2-64" target="edP7fKeh5xxDw6Jfyfg2-3">
          <mxGeometry width="50" height="50" relative="1" as="geometry">
            <mxPoint x="770" y="870" as="sourcePoint" />
            <mxPoint x="820" y="820" as="targetPoint" />
          </mxGeometry>
        </mxCell>
        <mxCell id="edP7fKeh5xxDw6Jfyfg2-65" value="" style="endArrow=none;html=1;rounded=0;exitX=1;exitY=1;exitDx=0;exitDy=0;entryX=0;entryY=0.5;entryDx=0;entryDy=0;fontStyle=1" edge="1" parent="1" source="edP7fKeh5xxDw6Jfyfg2-4" target="edP7fKeh5xxDw6Jfyfg2-64">
          <mxGeometry width="50" height="50" relative="1" as="geometry">
            <mxPoint x="530" y="980" as="sourcePoint" />
            <mxPoint x="810" y="1080" as="targetPoint" />
          </mxGeometry>
        </mxCell>
        <mxCell id="edP7fKeh5xxDw6Jfyfg2-64" value="买卖" style="rhombus;whiteSpace=wrap;html=1;rotation=15;fontStyle=1" vertex="1" parent="1">
          <mxGeometry x="625.02" y="1000" width="119.98" height="70" as="geometry" />
        </mxCell>
        <mxCell id="edP7fKeh5xxDw6Jfyfg2-66" value="1" style="text;html=1;align=center;verticalAlign=middle;resizable=0;points=[];autosize=1;strokeColor=none;fillColor=none;rotation=15;fontStyle=1" vertex="1" parent="1">
          <mxGeometry x="775" y="1038" width="30" height="30" as="geometry" />
        </mxCell>
        <mxCell id="edP7fKeh5xxDw6Jfyfg2-67" value="N" style="text;html=1;align=center;verticalAlign=middle;resizable=0;points=[];autosize=1;strokeColor=none;fillColor=none;rotation=30;fontStyle=1" vertex="1" parent="1">
          <mxGeometry x="575" y="970" width="30" height="30" as="geometry" />
        </mxCell>
        <mxCell id="edP7fKeh5xxDw6Jfyfg2-69" value="" style="endArrow=none;html=1;rounded=0;entryX=0.5;entryY=1;entryDx=0;entryDy=0;exitX=1;exitY=0;exitDx=0;exitDy=0;fontStyle=1" edge="1" parent="1" source="edP7fKeh5xxDw6Jfyfg2-3" target="edP7fKeh5xxDw6Jfyfg2-40">
          <mxGeometry width="50" height="50" relative="1" as="geometry">
            <mxPoint x="820" y="1000" as="sourcePoint" />
            <mxPoint x="870" y="950" as="targetPoint" />
          </mxGeometry>
        </mxCell>
        <mxCell id="edP7fKeh5xxDw6Jfyfg2-70" value="" style="endArrow=none;html=1;rounded=0;entryX=0;entryY=0.5;entryDx=0;entryDy=0;exitX=1;exitY=0.25;exitDx=0;exitDy=0;fontStyle=1" edge="1" parent="1" source="edP7fKeh5xxDw6Jfyfg2-3" target="edP7fKeh5xxDw6Jfyfg2-41">
          <mxGeometry width="50" height="50" relative="1" as="geometry">
            <mxPoint x="940" y="1095" as="sourcePoint" />
            <mxPoint x="980" y="1070" as="targetPoint" />
          </mxGeometry>
        </mxCell>
        <mxCell id="edP7fKeh5xxDw6Jfyfg2-71" value="" style="endArrow=none;html=1;rounded=0;entryX=0;entryY=0.5;entryDx=0;entryDy=0;exitX=1;exitY=0.75;exitDx=0;exitDy=0;fontStyle=1" edge="1" parent="1" source="edP7fKeh5xxDw6Jfyfg2-3" target="edP7fKeh5xxDw6Jfyfg2-43">
          <mxGeometry width="50" height="50" relative="1" as="geometry">
            <mxPoint x="970" y="1100" as="sourcePoint" />
            <mxPoint x="990" y="1080" as="targetPoint" />
          </mxGeometry>
        </mxCell>
        <mxCell id="edP7fKeh5xxDw6Jfyfg2-72" value="" style="endArrow=none;html=1;rounded=0;entryX=0.5;entryY=0;entryDx=0;entryDy=0;exitX=1;exitY=1;exitDx=0;exitDy=0;fontStyle=1" edge="1" parent="1" source="edP7fKeh5xxDw6Jfyfg2-3" target="edP7fKeh5xxDw6Jfyfg2-42">
          <mxGeometry width="50" height="50" relative="1" as="geometry">
            <mxPoint x="980" y="1110" as="sourcePoint" />
            <mxPoint x="1000" y="1090" as="targetPoint" />
          </mxGeometry>
        </mxCell>
        <mxCell id="edP7fKeh5xxDw6Jfyfg2-73" value="&lt;font style=&quot;font-size: 31px;&quot;&gt;ER图：&lt;/font&gt;" style="text;html=1;align=center;verticalAlign=middle;resizable=0;points=[];autosize=1;strokeColor=none;fillColor=none;" vertex="1" parent="1">
          <mxGeometry x="210" y="410" width="130" height="50" as="geometry" />
        </mxCell>
        <mxCell id="edP7fKeh5xxDw6Jfyfg2-110" value="评价" style="whiteSpace=wrap;html=1;align=center;" vertex="1" parent="1">
          <mxGeometry x="950" y="1990" width="100" height="40" as="geometry" />
        </mxCell>
        <mxCell id="edP7fKeh5xxDw6Jfyfg2-111" value="教师" style="whiteSpace=wrap;html=1;align=center;" vertex="1" parent="1">
          <mxGeometry x="240" y="2120" width="100" height="40" as="geometry" />
        </mxCell>
        <mxCell id="edP7fKeh5xxDw6Jfyfg2-112" value="试卷" style="whiteSpace=wrap;html=1;align=center;" vertex="1" parent="1">
          <mxGeometry x="629.98" y="2120" width="100" height="40" as="geometry" />
        </mxCell>
        <mxCell id="edP7fKeh5xxDw6Jfyfg2-113" value="试题" style="whiteSpace=wrap;html=1;align=center;" vertex="1" parent="1">
          <mxGeometry x="629.98" y="1940" width="100" height="40" as="geometry" />
        </mxCell>
        <mxCell id="edP7fKeh5xxDw6Jfyfg2-114" value="学生" style="whiteSpace=wrap;html=1;align=center;" vertex="1" parent="1">
          <mxGeometry x="950" y="2120" width="100" height="40" as="geometry" />
        </mxCell>
        <mxCell id="edP7fKeh5xxDw6Jfyfg2-115" value="试题维护人员" style="whiteSpace=wrap;html=1;align=center;" vertex="1" parent="1">
          <mxGeometry x="240" y="1940" width="100" height="40" as="geometry" />
        </mxCell>
        <mxCell id="edP7fKeh5xxDw6Jfyfg2-117" value="" style="endArrow=none;html=1;rounded=0;exitX=1;exitY=0.5;exitDx=0;exitDy=0;entryX=0;entryY=0.5;entryDx=0;entryDy=0;" edge="1" parent="1" source="edP7fKeh5xxDw6Jfyfg2-122" target="edP7fKeh5xxDw6Jfyfg2-113">
          <mxGeometry relative="1" as="geometry">
            <mxPoint x="395" y="1960" as="sourcePoint" />
            <mxPoint x="555" y="1960" as="targetPoint" />
          </mxGeometry>
        </mxCell>
        <mxCell id="edP7fKeh5xxDw6Jfyfg2-118" value="N" style="resizable=0;html=1;whiteSpace=wrap;align=right;verticalAlign=bottom;" connectable="0" vertex="1" parent="edP7fKeh5xxDw6Jfyfg2-117">
          <mxGeometry x="1" relative="1" as="geometry" />
        </mxCell>
        <mxCell id="edP7fKeh5xxDw6Jfyfg2-123" value="" style="endArrow=none;html=1;rounded=0;exitX=1;exitY=0.5;exitDx=0;exitDy=0;" edge="1" parent="1" source="edP7fKeh5xxDw6Jfyfg2-115" target="edP7fKeh5xxDw6Jfyfg2-122">
          <mxGeometry relative="1" as="geometry">
            <mxPoint x="390" y="1960" as="sourcePoint" />
            <mxPoint x="555" y="1960" as="targetPoint" />
          </mxGeometry>
        </mxCell>
        <mxCell id="edP7fKeh5xxDw6Jfyfg2-122" value="增删改" style="shape=rhombus;perimeter=rhombusPerimeter;whiteSpace=wrap;html=1;align=center;" vertex="1" parent="1">
          <mxGeometry x="410" y="1930" width="120" height="60" as="geometry" />
        </mxCell>
        <mxCell id="edP7fKeh5xxDw6Jfyfg2-125" value="" style="endArrow=none;html=1;rounded=0;exitX=1;exitY=0.5;exitDx=0;exitDy=0;entryX=0;entryY=0.5;entryDx=0;entryDy=0;" edge="1" parent="1" source="edP7fKeh5xxDw6Jfyfg2-127" target="edP7fKeh5xxDw6Jfyfg2-112">
          <mxGeometry relative="1" as="geometry">
            <mxPoint x="520" y="2140" as="sourcePoint" />
            <mxPoint x="680" y="2140" as="targetPoint" />
          </mxGeometry>
        </mxCell>
        <mxCell id="edP7fKeh5xxDw6Jfyfg2-126" value="N" style="resizable=0;html=1;whiteSpace=wrap;align=right;verticalAlign=bottom;" connectable="0" vertex="1" parent="edP7fKeh5xxDw6Jfyfg2-125">
          <mxGeometry x="1" relative="1" as="geometry" />
        </mxCell>
        <mxCell id="edP7fKeh5xxDw6Jfyfg2-128" value="" style="endArrow=none;html=1;rounded=0;exitX=1;exitY=0.5;exitDx=0;exitDy=0;entryX=0;entryY=0.5;entryDx=0;entryDy=0;" edge="1" parent="1" source="edP7fKeh5xxDw6Jfyfg2-111" target="edP7fKeh5xxDw6Jfyfg2-127">
          <mxGeometry relative="1" as="geometry">
            <mxPoint x="340" y="2140" as="sourcePoint" />
            <mxPoint x="630" y="2140" as="targetPoint" />
          </mxGeometry>
        </mxCell>
        <mxCell id="edP7fKeh5xxDw6Jfyfg2-127" value="组卷" style="shape=rhombus;perimeter=rhombusPerimeter;whiteSpace=wrap;html=1;align=center;" vertex="1" parent="1">
          <mxGeometry x="410" y="2110" width="120" height="60" as="geometry" />
        </mxCell>
        <mxCell id="edP7fKeh5xxDw6Jfyfg2-130" value="" style="endArrow=none;html=1;rounded=0;entryX=0.5;entryY=1;entryDx=0;entryDy=0;exitX=0.5;exitY=0;exitDx=0;exitDy=0;" edge="1" parent="1" source="edP7fKeh5xxDw6Jfyfg2-112" target="edP7fKeh5xxDw6Jfyfg2-113">
          <mxGeometry relative="1" as="geometry">
            <mxPoint x="520" y="2070" as="sourcePoint" />
            <mxPoint x="680" y="2070" as="targetPoint" />
          </mxGeometry>
        </mxCell>
        <mxCell id="edP7fKeh5xxDw6Jfyfg2-131" value="M" style="resizable=0;html=1;whiteSpace=wrap;align=left;verticalAlign=bottom;" connectable="0" vertex="1" parent="edP7fKeh5xxDw6Jfyfg2-130">
          <mxGeometry x="-1" relative="1" as="geometry" />
        </mxCell>
        <mxCell id="edP7fKeh5xxDw6Jfyfg2-132" value="N" style="resizable=0;html=1;whiteSpace=wrap;align=right;verticalAlign=bottom;" connectable="0" vertex="1" parent="edP7fKeh5xxDw6Jfyfg2-130">
          <mxGeometry x="1" relative="1" as="geometry" />
        </mxCell>
        <mxCell id="edP7fKeh5xxDw6Jfyfg2-133" value="组成" style="shape=rhombus;perimeter=rhombusPerimeter;whiteSpace=wrap;html=1;align=center;" vertex="1" parent="1">
          <mxGeometry x="619.98" y="2010" width="120" height="60" as="geometry" />
        </mxCell>
        <mxCell id="edP7fKeh5xxDw6Jfyfg2-134" value="" style="endArrow=none;html=1;rounded=0;exitX=0;exitY=0.5;exitDx=0;exitDy=0;entryX=1;entryY=0.5;entryDx=0;entryDy=0;" edge="1" parent="1" source="edP7fKeh5xxDw6Jfyfg2-137" target="edP7fKeh5xxDw6Jfyfg2-112">
          <mxGeometry relative="1" as="geometry">
            <mxPoint x="610" y="2050" as="sourcePoint" />
            <mxPoint x="770" y="2050" as="targetPoint" />
          </mxGeometry>
        </mxCell>
        <mxCell id="edP7fKeh5xxDw6Jfyfg2-136" value="N" style="resizable=0;html=1;whiteSpace=wrap;align=right;verticalAlign=bottom;" connectable="0" vertex="1" parent="edP7fKeh5xxDw6Jfyfg2-134">
          <mxGeometry x="1" relative="1" as="geometry" />
        </mxCell>
        <mxCell id="edP7fKeh5xxDw6Jfyfg2-138" value="" style="endArrow=none;html=1;rounded=0;exitX=0;exitY=0.5;exitDx=0;exitDy=0;entryX=1;entryY=0.5;entryDx=0;entryDy=0;" edge="1" parent="1" source="edP7fKeh5xxDw6Jfyfg2-114" target="edP7fKeh5xxDw6Jfyfg2-137">
          <mxGeometry relative="1" as="geometry">
            <mxPoint x="950" y="2140" as="sourcePoint" />
            <mxPoint x="730" y="2140" as="targetPoint" />
          </mxGeometry>
        </mxCell>
        <mxCell id="edP7fKeh5xxDw6Jfyfg2-139" value="M" style="resizable=0;html=1;whiteSpace=wrap;align=left;verticalAlign=bottom;" connectable="0" vertex="1" parent="edP7fKeh5xxDw6Jfyfg2-138">
          <mxGeometry x="-1" relative="1" as="geometry" />
        </mxCell>
        <mxCell id="edP7fKeh5xxDw6Jfyfg2-137" value="完成" style="shape=rhombus;perimeter=rhombusPerimeter;whiteSpace=wrap;html=1;align=center;" vertex="1" parent="1">
          <mxGeometry x="790" y="2110" width="120" height="60" as="geometry" />
        </mxCell>
        <mxCell id="edP7fKeh5xxDw6Jfyfg2-141" value="" style="endArrow=none;html=1;rounded=0;entryX=0.5;entryY=1;entryDx=0;entryDy=0;exitX=0.5;exitY=0;exitDx=0;exitDy=0;" edge="1" parent="1" source="edP7fKeh5xxDw6Jfyfg2-114" target="edP7fKeh5xxDw6Jfyfg2-110">
          <mxGeometry relative="1" as="geometry">
            <mxPoint x="610" y="2050" as="sourcePoint" />
            <mxPoint x="770" y="2050" as="targetPoint" />
          </mxGeometry>
        </mxCell>
        <mxCell id="edP7fKeh5xxDw6Jfyfg2-142" value="N" style="resizable=0;html=1;whiteSpace=wrap;align=right;verticalAlign=bottom;" connectable="0" vertex="1" parent="edP7fKeh5xxDw6Jfyfg2-141">
          <mxGeometry x="1" relative="1" as="geometry" />
        </mxCell>
        <mxCell id="edP7fKeh5xxDw6Jfyfg2-143" value="内容" style="ellipse;whiteSpace=wrap;html=1;align=center;" vertex="1" parent="1">
          <mxGeometry x="529.98" y="1890" width="100" height="40" as="geometry" />
        </mxCell>
        <mxCell id="edP7fKeh5xxDw6Jfyfg2-144" value="试题编号" style="ellipse;whiteSpace=wrap;html=1;align=center;" vertex="1" parent="1">
          <mxGeometry x="630" y="1800" width="100" height="40" as="geometry" />
        </mxCell>
        <mxCell id="edP7fKeh5xxDw6Jfyfg2-145" value="类型" style="ellipse;whiteSpace=wrap;html=1;align=center;" vertex="1" parent="1">
          <mxGeometry x="529.98" y="1830" width="100" height="40" as="geometry" />
        </mxCell>
        <mxCell id="edP7fKeh5xxDw6Jfyfg2-146" value="答案" style="ellipse;whiteSpace=wrap;html=1;align=center;" vertex="1" parent="1">
          <mxGeometry x="730" y="1830" width="100" height="40" as="geometry" />
        </mxCell>
        <mxCell id="edP7fKeh5xxDw6Jfyfg2-147" value="分值" style="ellipse;whiteSpace=wrap;html=1;align=center;" vertex="1" parent="1">
          <mxGeometry x="730" y="1890" width="100" height="40" as="geometry" />
        </mxCell>
        <mxCell id="edP7fKeh5xxDw6Jfyfg2-154" value="" style="endArrow=none;html=1;rounded=0;entryX=0;entryY=0;entryDx=0;entryDy=0;exitX=1;exitY=1;exitDx=0;exitDy=0;" edge="1" parent="1" source="edP7fKeh5xxDw6Jfyfg2-143" target="edP7fKeh5xxDw6Jfyfg2-113">
          <mxGeometry relative="1" as="geometry">
            <mxPoint x="580" y="1900" as="sourcePoint" />
            <mxPoint x="740" y="1900" as="targetPoint" />
          </mxGeometry>
        </mxCell>
        <mxCell id="edP7fKeh5xxDw6Jfyfg2-155" value="" style="endArrow=none;html=1;rounded=0;entryX=1;entryY=0;entryDx=0;entryDy=0;exitX=0;exitY=1;exitDx=0;exitDy=0;" edge="1" parent="1" source="edP7fKeh5xxDw6Jfyfg2-147" target="edP7fKeh5xxDw6Jfyfg2-113">
          <mxGeometry relative="1" as="geometry">
            <mxPoint x="615" y="1934" as="sourcePoint" />
            <mxPoint x="640" y="1950" as="targetPoint" />
          </mxGeometry>
        </mxCell>
        <mxCell id="edP7fKeh5xxDw6Jfyfg2-156" value="" style="endArrow=none;html=1;rounded=0;entryX=0.25;entryY=0;entryDx=0;entryDy=0;exitX=1;exitY=0.5;exitDx=0;exitDy=0;" edge="1" parent="1" source="edP7fKeh5xxDw6Jfyfg2-145" target="edP7fKeh5xxDw6Jfyfg2-113">
          <mxGeometry relative="1" as="geometry">
            <mxPoint x="625" y="1944" as="sourcePoint" />
            <mxPoint x="650" y="1960" as="targetPoint" />
          </mxGeometry>
        </mxCell>
        <mxCell id="edP7fKeh5xxDw6Jfyfg2-157" value="" style="endArrow=none;html=1;rounded=0;entryX=0.75;entryY=0;entryDx=0;entryDy=0;exitX=0;exitY=0.5;exitDx=0;exitDy=0;" edge="1" parent="1" source="edP7fKeh5xxDw6Jfyfg2-146" target="edP7fKeh5xxDw6Jfyfg2-113">
          <mxGeometry relative="1" as="geometry">
            <mxPoint x="639" y="1865" as="sourcePoint" />
            <mxPoint x="665" y="1950" as="targetPoint" />
          </mxGeometry>
        </mxCell>
        <mxCell id="edP7fKeh5xxDw6Jfyfg2-158" value="" style="endArrow=none;html=1;rounded=0;entryX=0.5;entryY=0;entryDx=0;entryDy=0;exitX=0.5;exitY=1;exitDx=0;exitDy=0;" edge="1" parent="1" source="edP7fKeh5xxDw6Jfyfg2-144" target="edP7fKeh5xxDw6Jfyfg2-113">
          <mxGeometry relative="1" as="geometry">
            <mxPoint x="649" y="1875" as="sourcePoint" />
            <mxPoint x="675" y="1960" as="targetPoint" />
          </mxGeometry>
        </mxCell>
        <mxCell id="edP7fKeh5xxDw6Jfyfg2-159" value="姓名" style="ellipse;whiteSpace=wrap;html=1;align=center;" vertex="1" parent="1">
          <mxGeometry x="140" y="2070" width="100" height="40" as="geometry" />
        </mxCell>
        <mxCell id="edP7fKeh5xxDw6Jfyfg2-160" value="联系方式" style="ellipse;whiteSpace=wrap;html=1;align=center;" vertex="1" parent="1">
          <mxGeometry x="140" y="2180" width="100" height="40" as="geometry" />
        </mxCell>
        <mxCell id="edP7fKeh5xxDw6Jfyfg2-161" value="教师ID" style="ellipse;whiteSpace=wrap;html=1;align=center;" vertex="1" parent="1">
          <mxGeometry x="50" y="2120" width="100" height="40" as="geometry" />
        </mxCell>
        <mxCell id="edP7fKeh5xxDw6Jfyfg2-162" value="" style="endArrow=none;html=1;rounded=0;exitX=1;exitY=0.5;exitDx=0;exitDy=0;entryX=0;entryY=0.5;entryDx=0;entryDy=0;" edge="1" parent="1" source="edP7fKeh5xxDw6Jfyfg2-161" target="edP7fKeh5xxDw6Jfyfg2-111">
          <mxGeometry relative="1" as="geometry">
            <mxPoint x="370" y="2020" as="sourcePoint" />
            <mxPoint x="530" y="2020" as="targetPoint" />
          </mxGeometry>
        </mxCell>
        <mxCell id="edP7fKeh5xxDw6Jfyfg2-163" value="" style="endArrow=none;html=1;rounded=0;exitX=0.5;exitY=1;exitDx=0;exitDy=0;entryX=0;entryY=0;entryDx=0;entryDy=0;" edge="1" parent="1" source="edP7fKeh5xxDw6Jfyfg2-159" target="edP7fKeh5xxDw6Jfyfg2-111">
          <mxGeometry relative="1" as="geometry">
            <mxPoint x="170" y="2150" as="sourcePoint" />
            <mxPoint x="250" y="2150" as="targetPoint" />
          </mxGeometry>
        </mxCell>
        <mxCell id="edP7fKeh5xxDw6Jfyfg2-164" value="" style="endArrow=none;html=1;rounded=0;exitX=0.5;exitY=0;exitDx=0;exitDy=0;entryX=0;entryY=1;entryDx=0;entryDy=0;" edge="1" parent="1" source="edP7fKeh5xxDw6Jfyfg2-160" target="edP7fKeh5xxDw6Jfyfg2-111">
          <mxGeometry relative="1" as="geometry">
            <mxPoint x="180" y="2160" as="sourcePoint" />
            <mxPoint x="260" y="2160" as="targetPoint" />
          </mxGeometry>
        </mxCell>
        <mxCell id="edP7fKeh5xxDw6Jfyfg2-165" value="姓名" style="ellipse;whiteSpace=wrap;html=1;align=center;" vertex="1" parent="1">
          <mxGeometry x="140" y="1880" width="100" height="40" as="geometry" />
        </mxCell>
        <mxCell id="edP7fKeh5xxDw6Jfyfg2-166" value="ID" style="ellipse;whiteSpace=wrap;html=1;align=center;" vertex="1" parent="1">
          <mxGeometry x="50" y="1940" width="100" height="40" as="geometry" />
        </mxCell>
        <mxCell id="edP7fKeh5xxDw6Jfyfg2-167" value="联系方式" style="ellipse;whiteSpace=wrap;html=1;align=center;" vertex="1" parent="1">
          <mxGeometry x="140" y="2000" width="100" height="40" as="geometry" />
        </mxCell>
        <mxCell id="edP7fKeh5xxDw6Jfyfg2-168" value="" style="endArrow=none;html=1;rounded=0;entryX=0;entryY=0.5;entryDx=0;entryDy=0;exitX=1;exitY=0.5;exitDx=0;exitDy=0;" edge="1" parent="1" source="edP7fKeh5xxDw6Jfyfg2-166" target="edP7fKeh5xxDw6Jfyfg2-115">
          <mxGeometry relative="1" as="geometry">
            <mxPoint x="70" y="1990" as="sourcePoint" />
            <mxPoint x="230" y="1990" as="targetPoint" />
          </mxGeometry>
        </mxCell>
        <mxCell id="edP7fKeh5xxDw6Jfyfg2-169" value="" style="endArrow=none;html=1;rounded=0;entryX=0;entryY=1;entryDx=0;entryDy=0;exitX=0.5;exitY=0;exitDx=0;exitDy=0;" edge="1" parent="1" source="edP7fKeh5xxDw6Jfyfg2-167" target="edP7fKeh5xxDw6Jfyfg2-115">
          <mxGeometry relative="1" as="geometry">
            <mxPoint x="160" y="1970" as="sourcePoint" />
            <mxPoint x="250" y="1970" as="targetPoint" />
          </mxGeometry>
        </mxCell>
        <mxCell id="edP7fKeh5xxDw6Jfyfg2-170" value="" style="endArrow=none;html=1;rounded=0;entryX=0;entryY=0;entryDx=0;entryDy=0;exitX=0.5;exitY=1;exitDx=0;exitDy=0;" edge="1" parent="1" source="edP7fKeh5xxDw6Jfyfg2-165" target="edP7fKeh5xxDw6Jfyfg2-115">
          <mxGeometry relative="1" as="geometry">
            <mxPoint x="170" y="1980" as="sourcePoint" />
            <mxPoint x="260" y="1980" as="targetPoint" />
          </mxGeometry>
        </mxCell>
        <mxCell id="edP7fKeh5xxDw6Jfyfg2-171" value="试卷内容" style="ellipse;whiteSpace=wrap;html=1;align=center;" vertex="1" parent="1">
          <mxGeometry x="530" y="2180" width="100" height="40" as="geometry" />
        </mxCell>
        <mxCell id="edP7fKeh5xxDw6Jfyfg2-172" value="试卷编号" style="ellipse;whiteSpace=wrap;html=1;align=center;" vertex="1" parent="1">
          <mxGeometry x="630" y="2230" width="100" height="40" as="geometry" />
        </mxCell>
        <mxCell id="edP7fKeh5xxDw6Jfyfg2-173" value="分值" style="ellipse;whiteSpace=wrap;html=1;align=center;" vertex="1" parent="1">
          <mxGeometry x="729.98" y="2180" width="100" height="40" as="geometry" />
        </mxCell>
        <mxCell id="edP7fKeh5xxDw6Jfyfg2-174" value="" style="endArrow=none;html=1;rounded=0;exitX=0.5;exitY=0;exitDx=0;exitDy=0;entryX=0.5;entryY=1;entryDx=0;entryDy=0;" edge="1" parent="1" source="edP7fKeh5xxDw6Jfyfg2-172" target="edP7fKeh5xxDw6Jfyfg2-112">
          <mxGeometry relative="1" as="geometry">
            <mxPoint x="730" y="2070" as="sourcePoint" />
            <mxPoint x="890" y="2070" as="targetPoint" />
          </mxGeometry>
        </mxCell>
        <mxCell id="edP7fKeh5xxDw6Jfyfg2-175" value="" style="endArrow=none;html=1;rounded=0;exitX=0.5;exitY=0;exitDx=0;exitDy=0;entryX=0;entryY=1;entryDx=0;entryDy=0;" edge="1" parent="1" source="edP7fKeh5xxDw6Jfyfg2-171" target="edP7fKeh5xxDw6Jfyfg2-112">
          <mxGeometry relative="1" as="geometry">
            <mxPoint x="690" y="2240" as="sourcePoint" />
            <mxPoint x="690" y="2170" as="targetPoint" />
          </mxGeometry>
        </mxCell>
        <mxCell id="edP7fKeh5xxDw6Jfyfg2-176" value="" style="endArrow=none;html=1;rounded=0;exitX=0.5;exitY=0;exitDx=0;exitDy=0;entryX=1;entryY=1;entryDx=0;entryDy=0;" edge="1" parent="1" source="edP7fKeh5xxDw6Jfyfg2-173" target="edP7fKeh5xxDw6Jfyfg2-112">
          <mxGeometry relative="1" as="geometry">
            <mxPoint x="700" y="2250" as="sourcePoint" />
            <mxPoint x="700" y="2180" as="targetPoint" />
          </mxGeometry>
        </mxCell>
        <mxCell id="edP7fKeh5xxDw6Jfyfg2-177" value="评价ID" style="ellipse;whiteSpace=wrap;html=1;align=center;" vertex="1" parent="1">
          <mxGeometry x="950" y="1870" width="100" height="40" as="geometry" />
        </mxCell>
        <mxCell id="edP7fKeh5xxDw6Jfyfg2-178" value="评分" style="ellipse;whiteSpace=wrap;html=1;align=center;" vertex="1" parent="1">
          <mxGeometry x="850" y="1920" width="100" height="40" as="geometry" />
        </mxCell>
        <mxCell id="edP7fKeh5xxDw6Jfyfg2-179" value="评语" style="ellipse;whiteSpace=wrap;html=1;align=center;" vertex="1" parent="1">
          <mxGeometry x="1050" y="1920" width="100" height="40" as="geometry" />
        </mxCell>
        <mxCell id="edP7fKeh5xxDw6Jfyfg2-180" value="" style="endArrow=none;html=1;rounded=0;entryX=0.5;entryY=0;entryDx=0;entryDy=0;exitX=0.5;exitY=1;exitDx=0;exitDy=0;" edge="1" parent="1" source="edP7fKeh5xxDw6Jfyfg2-177" target="edP7fKeh5xxDw6Jfyfg2-110">
          <mxGeometry relative="1" as="geometry">
            <mxPoint x="860" y="1960" as="sourcePoint" />
            <mxPoint x="1020" y="1960" as="targetPoint" />
          </mxGeometry>
        </mxCell>
        <mxCell id="edP7fKeh5xxDw6Jfyfg2-181" value="" style="endArrow=none;html=1;rounded=0;entryX=0;entryY=0;entryDx=0;entryDy=0;exitX=0.5;exitY=1;exitDx=0;exitDy=0;" edge="1" parent="1" source="edP7fKeh5xxDw6Jfyfg2-178" target="edP7fKeh5xxDw6Jfyfg2-110">
          <mxGeometry relative="1" as="geometry">
            <mxPoint x="860" y="1960" as="sourcePoint" />
            <mxPoint x="1020" y="1960" as="targetPoint" />
          </mxGeometry>
        </mxCell>
        <mxCell id="edP7fKeh5xxDw6Jfyfg2-182" value="" style="endArrow=none;html=1;rounded=0;entryX=0.5;entryY=1;entryDx=0;entryDy=0;exitX=1;exitY=0;exitDx=0;exitDy=0;" edge="1" parent="1" source="edP7fKeh5xxDw6Jfyfg2-110" target="edP7fKeh5xxDw6Jfyfg2-179">
          <mxGeometry relative="1" as="geometry">
            <mxPoint x="860" y="1960" as="sourcePoint" />
            <mxPoint x="1020" y="1960" as="targetPoint" />
          </mxGeometry>
        </mxCell>
        <mxCell id="edP7fKeh5xxDw6Jfyfg2-185" value="" style="edgeStyle=orthogonalEdgeStyle;rounded=0;orthogonalLoop=1;jettySize=auto;html=1;" edge="1" parent="1" source="edP7fKeh5xxDw6Jfyfg2-183" target="edP7fKeh5xxDw6Jfyfg2-184">
          <mxGeometry relative="1" as="geometry" />
        </mxCell>
        <mxCell id="edP7fKeh5xxDw6Jfyfg2-183" value="教师" style="html=1;dashed=0;whiteSpace=wrap;direction=east;" vertex="1" parent="1">
          <mxGeometry x="1460" y="1840" width="100" height="50" as="geometry" />
        </mxCell>
        <mxCell id="edP7fKeh5xxDw6Jfyfg2-188" value="" style="edgeStyle=orthogonalEdgeStyle;rounded=0;orthogonalLoop=1;jettySize=auto;html=1;entryX=0;entryY=0.5;entryDx=0;entryDy=0;exitX=0.5;exitY=1;exitDx=0;exitDy=0;" edge="1" parent="1" source="edP7fKeh5xxDw6Jfyfg2-184" target="edP7fKeh5xxDw6Jfyfg2-187">
          <mxGeometry relative="1" as="geometry" />
        </mxCell>
        <mxCell id="edP7fKeh5xxDw6Jfyfg2-190" value="" style="edgeStyle=orthogonalEdgeStyle;rounded=0;orthogonalLoop=1;jettySize=auto;html=1;" edge="1" parent="1" source="edP7fKeh5xxDw6Jfyfg2-184" target="edP7fKeh5xxDw6Jfyfg2-189">
          <mxGeometry relative="1" as="geometry" />
        </mxCell>
        <mxCell id="edP7fKeh5xxDw6Jfyfg2-184" value="组卷/确定分值&lt;div&gt;1.1&lt;/div&gt;" style="ellipse;whiteSpace=wrap;html=1;dashed=0;direction=east;" vertex="1" parent="1">
          <mxGeometry x="1650" y="1840" width="100" height="50" as="geometry" />
        </mxCell>
        <mxCell id="edP7fKeh5xxDw6Jfyfg2-198" value="" style="edgeStyle=orthogonalEdgeStyle;rounded=0;orthogonalLoop=1;jettySize=auto;html=1;" edge="1" parent="1" source="edP7fKeh5xxDw6Jfyfg2-187" target="edP7fKeh5xxDw6Jfyfg2-197">
          <mxGeometry relative="1" as="geometry" />
        </mxCell>
        <mxCell id="edP7fKeh5xxDw6Jfyfg2-187" value="存储&lt;div&gt;1.2&lt;/div&gt;" style="ellipse;whiteSpace=wrap;html=1;dashed=0;direction=east;" vertex="1" parent="1">
          <mxGeometry x="1830" y="1940" width="100" height="50" as="geometry" />
        </mxCell>
        <mxCell id="edP7fKeh5xxDw6Jfyfg2-200" value="" style="edgeStyle=orthogonalEdgeStyle;rounded=0;orthogonalLoop=1;jettySize=auto;html=1;" edge="1" parent="1" source="edP7fKeh5xxDw6Jfyfg2-189" target="edP7fKeh5xxDw6Jfyfg2-199">
          <mxGeometry relative="1" as="geometry" />
        </mxCell>
        <mxCell id="edP7fKeh5xxDw6Jfyfg2-189" value="回收&lt;div&gt;1.3&lt;/div&gt;" style="ellipse;whiteSpace=wrap;html=1;dashed=0;direction=east;" vertex="1" parent="1">
          <mxGeometry x="1830" y="1840" width="100" height="50" as="geometry" />
        </mxCell>
        <mxCell id="edP7fKeh5xxDw6Jfyfg2-202" value="" style="edgeStyle=orthogonalEdgeStyle;rounded=0;orthogonalLoop=1;jettySize=auto;html=1;" edge="1" parent="1" source="edP7fKeh5xxDw6Jfyfg2-195" target="edP7fKeh5xxDw6Jfyfg2-201">
          <mxGeometry relative="1" as="geometry" />
        </mxCell>
        <mxCell id="edP7fKeh5xxDw6Jfyfg2-195" value="题库维护人员" style="html=1;dashed=0;whiteSpace=wrap;direction=east;" vertex="1" parent="1">
          <mxGeometry x="1270" y="1710" width="100" height="50" as="geometry" />
        </mxCell>
        <mxCell id="edP7fKeh5xxDw6Jfyfg2-208" value="" style="edgeStyle=orthogonalEdgeStyle;rounded=0;orthogonalLoop=1;jettySize=auto;html=1;" edge="1" parent="1" source="edP7fKeh5xxDw6Jfyfg2-197" target="edP7fKeh5xxDw6Jfyfg2-207">
          <mxGeometry relative="1" as="geometry" />
        </mxCell>
        <mxCell id="edP7fKeh5xxDw6Jfyfg2-197" value="试卷库" style="whiteSpace=wrap;html=1;dashed=0;direction=east;" vertex="1" parent="1">
          <mxGeometry x="1830" y="2080" width="100" height="50" as="geometry" />
        </mxCell>
        <mxCell id="edP7fKeh5xxDw6Jfyfg2-209" value="" style="edgeStyle=orthogonalEdgeStyle;rounded=0;orthogonalLoop=1;jettySize=auto;html=1;" edge="1" parent="1" source="edP7fKeh5xxDw6Jfyfg2-199" target="edP7fKeh5xxDw6Jfyfg2-206">
          <mxGeometry relative="1" as="geometry" />
        </mxCell>
        <mxCell id="edP7fKeh5xxDw6Jfyfg2-199" value="试题库" style="whiteSpace=wrap;html=1;dashed=0;direction=east;" vertex="1" parent="1">
          <mxGeometry x="1830" y="1710" width="100" height="50" as="geometry" />
        </mxCell>
        <mxCell id="edP7fKeh5xxDw6Jfyfg2-203" style="edgeStyle=orthogonalEdgeStyle;rounded=0;orthogonalLoop=1;jettySize=auto;html=1;entryX=0;entryY=0.5;entryDx=0;entryDy=0;" edge="1" parent="1" source="edP7fKeh5xxDw6Jfyfg2-204" target="edP7fKeh5xxDw6Jfyfg2-199">
          <mxGeometry relative="1" as="geometry" />
        </mxCell>
        <mxCell id="edP7fKeh5xxDw6Jfyfg2-201" value="增删改&lt;div&gt;2.1&lt;/div&gt;" style="ellipse;whiteSpace=wrap;html=1;dashed=0;direction=east;" vertex="1" parent="1">
          <mxGeometry x="1460" y="1710" width="100" height="50" as="geometry" />
        </mxCell>
        <mxCell id="edP7fKeh5xxDw6Jfyfg2-205" value="" style="edgeStyle=orthogonalEdgeStyle;rounded=0;orthogonalLoop=1;jettySize=auto;html=1;entryX=0;entryY=0.5;entryDx=0;entryDy=0;" edge="1" parent="1" source="edP7fKeh5xxDw6Jfyfg2-201" target="edP7fKeh5xxDw6Jfyfg2-204">
          <mxGeometry relative="1" as="geometry">
            <mxPoint x="1540" y="1735" as="sourcePoint" />
            <mxPoint x="1830" y="1735" as="targetPoint" />
          </mxGeometry>
        </mxCell>
        <mxCell id="edP7fKeh5xxDw6Jfyfg2-204" value="确定分值&lt;div&gt;2.2&lt;/div&gt;" style="ellipse;whiteSpace=wrap;html=1;dashed=0;direction=east;" vertex="1" parent="1">
          <mxGeometry x="1650" y="1710" width="100" height="50" as="geometry" />
        </mxCell>
        <mxCell id="edP7fKeh5xxDw6Jfyfg2-217" style="edgeStyle=orthogonalEdgeStyle;rounded=0;orthogonalLoop=1;jettySize=auto;html=1;entryX=0;entryY=0.5;entryDx=0;entryDy=0;exitX=0.5;exitY=1;exitDx=0;exitDy=0;" edge="1" parent="1" source="edP7fKeh5xxDw6Jfyfg2-206" target="edP7fKeh5xxDw6Jfyfg2-214">
          <mxGeometry relative="1" as="geometry" />
        </mxCell>
        <mxCell id="edP7fKeh5xxDw6Jfyfg2-206" value="试题" style="html=1;dashed=0;whiteSpace=wrap;shape=partialRectangle;right=0;direction=east;" vertex="1" parent="1">
          <mxGeometry x="2040" y="1720" width="100" height="30" as="geometry" />
        </mxCell>
        <mxCell id="edP7fKeh5xxDw6Jfyfg2-216" style="edgeStyle=orthogonalEdgeStyle;rounded=0;orthogonalLoop=1;jettySize=auto;html=1;entryX=0;entryY=0.5;entryDx=0;entryDy=0;exitX=0.5;exitY=0;exitDx=0;exitDy=0;" edge="1" parent="1" source="edP7fKeh5xxDw6Jfyfg2-207" target="edP7fKeh5xxDw6Jfyfg2-215">
          <mxGeometry relative="1" as="geometry" />
        </mxCell>
        <mxCell id="edP7fKeh5xxDw6Jfyfg2-207" value="试卷" style="html=1;dashed=0;whiteSpace=wrap;shape=partialRectangle;right=0;direction=east;" vertex="1" parent="1">
          <mxGeometry x="2040" y="2090" width="100" height="30" as="geometry" />
        </mxCell>
        <mxCell id="edP7fKeh5xxDw6Jfyfg2-218" style="edgeStyle=orthogonalEdgeStyle;rounded=0;orthogonalLoop=1;jettySize=auto;html=1;entryX=0.5;entryY=1;entryDx=0;entryDy=0;" edge="1" parent="1" source="edP7fKeh5xxDw6Jfyfg2-212" target="edP7fKeh5xxDw6Jfyfg2-214">
          <mxGeometry relative="1" as="geometry" />
        </mxCell>
        <mxCell id="edP7fKeh5xxDw6Jfyfg2-219" style="edgeStyle=orthogonalEdgeStyle;rounded=0;orthogonalLoop=1;jettySize=auto;html=1;entryX=0.5;entryY=0;entryDx=0;entryDy=0;" edge="1" parent="1" source="edP7fKeh5xxDw6Jfyfg2-212" target="edP7fKeh5xxDw6Jfyfg2-215">
          <mxGeometry relative="1" as="geometry" />
        </mxCell>
        <mxCell id="edP7fKeh5xxDw6Jfyfg2-212" value="学生" style="html=1;dashed=0;whiteSpace=wrap;" vertex="1" parent="1">
          <mxGeometry x="1980" y="1900" width="100" height="50" as="geometry" />
        </mxCell>
        <mxCell id="edP7fKeh5xxDw6Jfyfg2-221" style="edgeStyle=orthogonalEdgeStyle;rounded=0;orthogonalLoop=1;jettySize=auto;html=1;entryX=0;entryY=0.5;entryDx=0;entryDy=0;" edge="1" parent="1" source="edP7fKeh5xxDw6Jfyfg2-214" target="edP7fKeh5xxDw6Jfyfg2-220">
          <mxGeometry relative="1" as="geometry">
            <Array as="points">
              <mxPoint x="2280" y="1825" />
              <mxPoint x="2280" y="1925" />
            </Array>
          </mxGeometry>
        </mxCell>
        <mxCell id="edP7fKeh5xxDw6Jfyfg2-214" value="随机组卷&lt;div&gt;3.1&lt;/div&gt;" style="shape=ellipse;html=1;dashed=0;whiteSpace=wrap;perimeter=ellipsePerimeter;" vertex="1" parent="1">
          <mxGeometry x="2160" y="1800" width="100" height="50" as="geometry" />
        </mxCell>
        <mxCell id="edP7fKeh5xxDw6Jfyfg2-222" style="edgeStyle=orthogonalEdgeStyle;rounded=0;orthogonalLoop=1;jettySize=auto;html=1;entryX=0;entryY=0.5;entryDx=0;entryDy=0;" edge="1" parent="1" source="edP7fKeh5xxDw6Jfyfg2-235" target="edP7fKeh5xxDw6Jfyfg2-220">
          <mxGeometry relative="1" as="geometry">
            <Array as="points">
              <mxPoint x="2280" y="1925" />
            </Array>
          </mxGeometry>
        </mxCell>
        <mxCell id="edP7fKeh5xxDw6Jfyfg2-215" value="在线练习&lt;div&gt;3.2&lt;/div&gt;" style="ellipse;whiteSpace=wrap;html=1;dashed=0;" vertex="1" parent="1">
          <mxGeometry x="2160" y="1985" width="100" height="50" as="geometry" />
        </mxCell>
        <mxCell id="edP7fKeh5xxDw6Jfyfg2-225" style="edgeStyle=orthogonalEdgeStyle;rounded=0;orthogonalLoop=1;jettySize=auto;html=1;entryX=0;entryY=0.5;entryDx=0;entryDy=0;" edge="1" parent="1" source="edP7fKeh5xxDw6Jfyfg2-220" target="edP7fKeh5xxDw6Jfyfg2-223">
          <mxGeometry relative="1" as="geometry" />
        </mxCell>
        <mxCell id="edP7fKeh5xxDw6Jfyfg2-226" style="edgeStyle=orthogonalEdgeStyle;rounded=0;orthogonalLoop=1;jettySize=auto;html=1;entryX=0;entryY=0.5;entryDx=0;entryDy=0;" edge="1" parent="1" source="edP7fKeh5xxDw6Jfyfg2-220" target="edP7fKeh5xxDw6Jfyfg2-224">
          <mxGeometry relative="1" as="geometry" />
        </mxCell>
        <mxCell id="edP7fKeh5xxDw6Jfyfg2-220" value="在线评价&lt;div&gt;3.3&lt;/div&gt;" style="ellipse;whiteSpace=wrap;html=1;dashed=0;" vertex="1" parent="1">
          <mxGeometry x="2480" y="1900" width="100" height="50" as="geometry" />
        </mxCell>
        <mxCell id="edP7fKeh5xxDw6Jfyfg2-228" value="" style="edgeStyle=orthogonalEdgeStyle;rounded=0;orthogonalLoop=1;jettySize=auto;html=1;" edge="1" parent="1" source="edP7fKeh5xxDw6Jfyfg2-223" target="edP7fKeh5xxDw6Jfyfg2-227">
          <mxGeometry relative="1" as="geometry" />
        </mxCell>
        <mxCell id="edP7fKeh5xxDw6Jfyfg2-223" value="试题评分" style="html=1;dashed=0;whiteSpace=wrap;shape=partialRectangle;right=0;" vertex="1" parent="1">
          <mxGeometry x="2700" y="1820" width="100" height="30" as="geometry" />
        </mxCell>
        <mxCell id="edP7fKeh5xxDw6Jfyfg2-231" style="edgeStyle=orthogonalEdgeStyle;rounded=0;orthogonalLoop=1;jettySize=auto;html=1;entryX=0.5;entryY=0;entryDx=0;entryDy=0;" edge="1" parent="1" source="edP7fKeh5xxDw6Jfyfg2-224" target="edP7fKeh5xxDw6Jfyfg2-230">
          <mxGeometry relative="1" as="geometry" />
        </mxCell>
        <mxCell id="edP7fKeh5xxDw6Jfyfg2-224" value="试卷评分" style="html=1;dashed=0;whiteSpace=wrap;shape=partialRectangle;right=0;" vertex="1" parent="1">
          <mxGeometry x="2700" y="1995" width="100" height="30" as="geometry" />
        </mxCell>
        <mxCell id="edP7fKeh5xxDw6Jfyfg2-227" value="试题评分记录" style="whiteSpace=wrap;html=1;dashed=0;" vertex="1" parent="1">
          <mxGeometry x="2700" y="1610" width="100" height="50" as="geometry" />
        </mxCell>
        <mxCell id="edP7fKeh5xxDw6Jfyfg2-230" value="试卷评分记录" style="whiteSpace=wrap;html=1;dashed=0;" vertex="1" parent="1">
          <mxGeometry x="2700" y="2180" width="100" height="50" as="geometry" />
        </mxCell>
        <mxCell id="edP7fKeh5xxDw6Jfyfg2-236" value="" style="edgeStyle=orthogonalEdgeStyle;rounded=0;orthogonalLoop=1;jettySize=auto;html=1;entryX=0;entryY=0.5;entryDx=0;entryDy=0;" edge="1" parent="1" source="edP7fKeh5xxDw6Jfyfg2-215" target="edP7fKeh5xxDw6Jfyfg2-235">
          <mxGeometry relative="1" as="geometry">
            <mxPoint x="2260" y="2010" as="sourcePoint" />
            <mxPoint x="2420" y="1925" as="targetPoint" />
            <Array as="points">
              <mxPoint x="2280" y="2010" />
            </Array>
          </mxGeometry>
        </mxCell>
        <mxCell id="edP7fKeh5xxDw6Jfyfg2-235" value="试卷答案" style="html=1;dashed=0;whiteSpace=wrap;" vertex="1" parent="1">
          <mxGeometry x="2330" y="1900" width="100" height="50" as="geometry" />
        </mxCell>
        <mxCell id="edP7fKeh5xxDw6Jfyfg2-242" value="离线" style="ellipse;whiteSpace=wrap;html=1;" vertex="1" parent="1">
          <mxGeometry x="1895" y="560" width="100" height="50" as="geometry" />
        </mxCell>
        <mxCell id="edP7fKeh5xxDw6Jfyfg2-254" value="" style="edgeStyle=orthogonalEdgeStyle;rounded=0;orthogonalLoop=1;jettySize=auto;html=1;entryX=0.5;entryY=0;entryDx=0;entryDy=0;" edge="1" parent="1" source="edP7fKeh5xxDw6Jfyfg2-242" target="edP7fKeh5xxDw6Jfyfg2-255">
          <mxGeometry relative="1" as="geometry">
            <mxPoint x="1945" y="610" as="sourcePoint" />
            <mxPoint x="1945" y="672" as="targetPoint" />
          </mxGeometry>
        </mxCell>
        <mxCell id="edP7fKeh5xxDw6Jfyfg2-260" value="" style="edgeStyle=orthogonalEdgeStyle;rounded=0;orthogonalLoop=1;jettySize=auto;html=1;" edge="1" parent="1" source="edP7fKeh5xxDw6Jfyfg2-255" target="edP7fKeh5xxDw6Jfyfg2-259">
          <mxGeometry relative="1" as="geometry" />
        </mxCell>
        <mxCell id="edP7fKeh5xxDw6Jfyfg2-274" style="edgeStyle=orthogonalEdgeStyle;rounded=0;orthogonalLoop=1;jettySize=auto;html=1;" edge="1" parent="1" source="edP7fKeh5xxDw6Jfyfg2-255">
          <mxGeometry relative="1" as="geometry">
            <mxPoint x="1730" y="715" as="targetPoint" />
          </mxGeometry>
        </mxCell>
        <mxCell id="edP7fKeh5xxDw6Jfyfg2-291" style="edgeStyle=orthogonalEdgeStyle;rounded=0;orthogonalLoop=1;jettySize=auto;html=1;entryX=0;entryY=0.5;entryDx=0;entryDy=0;" edge="1" parent="1" source="edP7fKeh5xxDw6Jfyfg2-255" target="edP7fKeh5xxDw6Jfyfg2-288">
          <mxGeometry relative="1" as="geometry" />
        </mxCell>
        <mxCell id="edP7fKeh5xxDw6Jfyfg2-255" value="登陆中" style="swimlane;childLayout=stackLayout;horizontal=1;startSize=50;horizontalStack=0;rounded=1;fontSize=14;fontStyle=0;strokeWidth=2;resizeParent=0;resizeLast=1;shadow=0;dashed=0;align=center;arcSize=4;whiteSpace=wrap;html=1;" vertex="1" parent="1">
          <mxGeometry x="1880" y="670" width="130" height="90" as="geometry" />
        </mxCell>
        <mxCell id="edP7fKeh5xxDw6Jfyfg2-257" value="登陆" style="text;html=1;align=center;verticalAlign=middle;resizable=0;points=[];autosize=1;strokeColor=none;fillColor=none;" vertex="1" parent="1">
          <mxGeometry x="1945" y="620" width="50" height="30" as="geometry" />
        </mxCell>
        <mxCell id="edP7fKeh5xxDw6Jfyfg2-258" value="等待" style="text;html=1;align=center;verticalAlign=middle;resizable=0;points=[];autosize=1;strokeColor=none;fillColor=none;" vertex="1" parent="1">
          <mxGeometry x="1920" y="718" width="50" height="30" as="geometry" />
        </mxCell>
        <mxCell id="edP7fKeh5xxDw6Jfyfg2-275" style="edgeStyle=orthogonalEdgeStyle;rounded=0;orthogonalLoop=1;jettySize=auto;html=1;" edge="1" parent="1" source="edP7fKeh5xxDw6Jfyfg2-259">
          <mxGeometry relative="1" as="geometry">
            <mxPoint x="1730" y="845" as="targetPoint" />
          </mxGeometry>
        </mxCell>
        <mxCell id="edP7fKeh5xxDw6Jfyfg2-259" value="在线练习" style="ellipse;whiteSpace=wrap;html=1;align=center;" vertex="1" parent="1">
          <mxGeometry x="1895" y="820" width="100" height="50" as="geometry" />
        </mxCell>
        <mxCell id="edP7fKeh5xxDw6Jfyfg2-298" style="edgeStyle=orthogonalEdgeStyle;rounded=0;orthogonalLoop=1;jettySize=auto;html=1;entryX=0.5;entryY=0;entryDx=0;entryDy=0;" edge="1" parent="1" source="edP7fKeh5xxDw6Jfyfg2-261" target="edP7fKeh5xxDw6Jfyfg2-297">
          <mxGeometry relative="1" as="geometry" />
        </mxCell>
        <mxCell id="edP7fKeh5xxDw6Jfyfg2-261" value="已登录" style="text;html=1;align=center;verticalAlign=middle;resizable=0;points=[];autosize=1;strokeColor=none;fillColor=none;" vertex="1" parent="1">
          <mxGeometry x="1935" y="770" width="60" height="30" as="geometry" />
        </mxCell>
        <mxCell id="edP7fKeh5xxDw6Jfyfg2-267" value="" style="edgeStyle=orthogonalEdgeStyle;rounded=0;orthogonalLoop=1;jettySize=auto;html=1;exitX=0.5;exitY=1;exitDx=0;exitDy=0;entryX=0.5;entryY=0;entryDx=0;entryDy=0;" edge="1" parent="1" source="edP7fKeh5xxDw6Jfyfg2-259" target="edP7fKeh5xxDw6Jfyfg2-262">
          <mxGeometry relative="1" as="geometry">
            <mxPoint x="1945" y="960" as="targetPoint" />
          </mxGeometry>
        </mxCell>
        <mxCell id="edP7fKeh5xxDw6Jfyfg2-262" value="练习状态" style="swimlane;childLayout=stackLayout;horizontal=1;startSize=50;horizontalStack=0;rounded=1;fontSize=14;fontStyle=0;strokeWidth=2;resizeParent=0;resizeLast=1;shadow=0;dashed=0;align=center;arcSize=4;whiteSpace=wrap;html=1;" vertex="1" parent="1">
          <mxGeometry x="1865" y="950" width="160" height="120" as="geometry" />
        </mxCell>
        <mxCell id="edP7fKeh5xxDw6Jfyfg2-284" style="edgeStyle=orthogonalEdgeStyle;rounded=0;orthogonalLoop=1;jettySize=auto;html=1;" edge="1" parent="edP7fKeh5xxDw6Jfyfg2-262" source="edP7fKeh5xxDw6Jfyfg2-270">
          <mxGeometry relative="1" as="geometry">
            <mxPoint x="-135" y="85" as="targetPoint" />
          </mxGeometry>
        </mxCell>
        <mxCell id="edP7fKeh5xxDw6Jfyfg2-270" value="做题" style="text;html=1;align=center;verticalAlign=middle;resizable=0;points=[];autosize=1;strokeColor=none;fillColor=none;" vertex="1" parent="edP7fKeh5xxDw6Jfyfg2-262">
          <mxGeometry y="50" width="160" height="70" as="geometry" />
        </mxCell>
        <mxCell id="edP7fKeh5xxDw6Jfyfg2-287" value="退出登录" style="text;html=1;align=center;verticalAlign=middle;resizable=0;points=[];autosize=1;strokeColor=none;fillColor=none;" vertex="1" parent="1">
          <mxGeometry x="1785" y="558" width="70" height="30" as="geometry" />
        </mxCell>
        <mxCell id="edP7fKeh5xxDw6Jfyfg2-288" value="超时" style="swimlane;childLayout=stackLayout;horizontal=1;startSize=50;horizontalStack=0;rounded=1;fontSize=14;fontStyle=0;strokeWidth=2;resizeParent=0;resizeLast=1;shadow=0;dashed=0;align=center;arcSize=4;whiteSpace=wrap;html=1;" vertex="1" parent="1">
          <mxGeometry x="2130" y="670" width="130" height="90" as="geometry" />
        </mxCell>
        <mxCell id="edP7fKeh5xxDw6Jfyfg2-304" style="edgeStyle=orthogonalEdgeStyle;rounded=0;orthogonalLoop=1;jettySize=auto;html=1;" edge="1" parent="edP7fKeh5xxDw6Jfyfg2-288" source="edP7fKeh5xxDw6Jfyfg2-292">
          <mxGeometry relative="1" as="geometry">
            <mxPoint x="270" y="70" as="targetPoint" />
          </mxGeometry>
        </mxCell>
        <mxCell id="edP7fKeh5xxDw6Jfyfg2-292" value="等待" style="text;html=1;align=center;verticalAlign=middle;resizable=0;points=[];autosize=1;strokeColor=none;fillColor=none;" vertex="1" parent="edP7fKeh5xxDw6Jfyfg2-288">
          <mxGeometry y="50" width="130" height="40" as="geometry" />
        </mxCell>
        <mxCell id="edP7fKeh5xxDw6Jfyfg2-293" value="退出登录" style="text;html=1;align=center;verticalAlign=middle;resizable=0;points=[];autosize=1;strokeColor=none;fillColor=none;" vertex="1" parent="1">
          <mxGeometry x="2025" y="558" width="70" height="30" as="geometry" />
        </mxCell>
        <mxCell id="edP7fKeh5xxDw6Jfyfg2-302" style="edgeStyle=orthogonalEdgeStyle;rounded=0;orthogonalLoop=1;jettySize=auto;html=1;entryX=0.5;entryY=0;entryDx=0;entryDy=0;" edge="1" parent="1" source="edP7fKeh5xxDw6Jfyfg2-297" target="edP7fKeh5xxDw6Jfyfg2-299">
          <mxGeometry relative="1" as="geometry" />
        </mxCell>
        <mxCell id="edP7fKeh5xxDw6Jfyfg2-306" style="edgeStyle=orthogonalEdgeStyle;rounded=0;orthogonalLoop=1;jettySize=auto;html=1;" edge="1" parent="1" source="edP7fKeh5xxDw6Jfyfg2-297">
          <mxGeometry relative="1" as="geometry">
            <mxPoint x="2400" y="1035" as="targetPoint" />
          </mxGeometry>
        </mxCell>
        <mxCell id="edP7fKeh5xxDw6Jfyfg2-297" value="在线评价" style="ellipse;whiteSpace=wrap;html=1;align=center;" vertex="1" parent="1">
          <mxGeometry x="2120" y="1010" width="100" height="50" as="geometry" />
        </mxCell>
        <mxCell id="edP7fKeh5xxDw6Jfyfg2-299" value="练习状态" style="swimlane;childLayout=stackLayout;horizontal=1;startSize=50;horizontalStack=0;rounded=1;fontSize=14;fontStyle=0;strokeWidth=2;resizeParent=0;resizeLast=1;shadow=0;dashed=0;align=center;arcSize=4;whiteSpace=wrap;html=1;" vertex="1" parent="1">
          <mxGeometry x="2090" y="1150" width="160" height="120" as="geometry" />
        </mxCell>
        <mxCell id="edP7fKeh5xxDw6Jfyfg2-301" value="等待评价" style="text;html=1;align=center;verticalAlign=middle;resizable=0;points=[];autosize=1;strokeColor=none;fillColor=none;" vertex="1" parent="edP7fKeh5xxDw6Jfyfg2-299">
          <mxGeometry y="50" width="160" height="70" as="geometry" />
        </mxCell>
        <mxCell id="edP7fKeh5xxDw6Jfyfg2-305" style="edgeStyle=orthogonalEdgeStyle;rounded=0;orthogonalLoop=1;jettySize=auto;html=1;entryX=0;entryY=0.5;entryDx=0;entryDy=0;" edge="1" parent="1" source="edP7fKeh5xxDw6Jfyfg2-270" target="edP7fKeh5xxDw6Jfyfg2-297">
          <mxGeometry relative="1" as="geometry" />
        </mxCell>
        <mxCell id="edP7fKeh5xxDw6Jfyfg2-307" value="" style="endArrow=classic;html=1;rounded=0;entryX=0;entryY=0.5;entryDx=0;entryDy=0;" edge="1" parent="1" target="edP7fKeh5xxDw6Jfyfg2-242">
          <mxGeometry width="50" height="50" relative="1" as="geometry">
            <mxPoint x="1730" y="1040" as="sourcePoint" />
            <mxPoint x="1830" y="850" as="targetPoint" />
            <Array as="points">
              <mxPoint x="1730" y="585" />
            </Array>
          </mxGeometry>
        </mxCell>
        <mxCell id="edP7fKeh5xxDw6Jfyfg2-310" style="edgeStyle=orthogonalEdgeStyle;rounded=0;orthogonalLoop=1;jettySize=auto;html=1;" edge="1" parent="1" source="edP7fKeh5xxDw6Jfyfg2-308">
          <mxGeometry relative="1" as="geometry">
            <mxPoint x="2400" y="1375" as="targetPoint" />
          </mxGeometry>
        </mxCell>
        <mxCell id="edP7fKeh5xxDw6Jfyfg2-308" value="断线" style="ellipse;whiteSpace=wrap;html=1;align=center;" vertex="1" parent="1">
          <mxGeometry x="2120" y="1350" width="100" height="50" as="geometry" />
        </mxCell>
        <mxCell id="edP7fKeh5xxDw6Jfyfg2-309" style="edgeStyle=orthogonalEdgeStyle;rounded=0;orthogonalLoop=1;jettySize=auto;html=1;entryX=0.5;entryY=0;entryDx=0;entryDy=0;" edge="1" parent="1" source="edP7fKeh5xxDw6Jfyfg2-301" target="edP7fKeh5xxDw6Jfyfg2-308">
          <mxGeometry relative="1" as="geometry" />
        </mxCell>
        <mxCell id="edP7fKeh5xxDw6Jfyfg2-311" value="" style="endArrow=classic;html=1;rounded=0;entryX=1;entryY=0.5;entryDx=0;entryDy=0;" edge="1" parent="1" target="edP7fKeh5xxDw6Jfyfg2-242">
          <mxGeometry width="50" height="50" relative="1" as="geometry">
            <mxPoint x="2400" y="1380" as="sourcePoint" />
            <mxPoint x="2300" y="1080" as="targetPoint" />
            <Array as="points">
              <mxPoint x="2400" y="585" />
            </Array>
          </mxGeometry>
        </mxCell>
        <mxCell id="edP7fKeh5xxDw6Jfyfg2-312" value="网络断开" style="text;html=1;align=center;verticalAlign=middle;resizable=0;points=[];autosize=1;strokeColor=none;fillColor=none;" vertex="1" parent="1">
          <mxGeometry x="2175" y="1298" width="70" height="30" as="geometry" />
        </mxCell>
      </root>
    </mxGraphModel>
  </diagram>
</mxfile>
